<svg xmlns="http://www.w3.org/2000/svg" viewBox="0 0 96 96" role="img" aria-label="Twice Baked Marketing logo icon">
  <defs>
    <linearGradient id="potatoGrad" x1="20" y1="12" x2="74" y2="86" gradientUnits="userSpaceOnUse">
      <stop offset="0" stop-color="#D9A441" />
      <stop offset="1" stop-color="#A56A31" />
    </linearGradient>
  </defs>

  <rect width="96" height="96" rx="18" fill="#E9DCC7" />

  <path
    d="M41 10C23 10 9 30 9 58c0 20 12 33 31 33 23 0 44-17 44-42 0-21-15-39-43-39z"
    fill="url(#potatoGrad)"
  />

  <circle cx="24" cy="24" r="2.5" fill="#8D592F" opacity="0.45" />
  <circle cx="19" cy="50" r="2.2" fill="#8D592F" opacity="0.45" />
  <circle cx="33" cy="78" r="2.4" fill="#8D592F" opacity="0.45" />

  <rect x="24" y="37" width="40" height="5.8" rx="2.9" fill="#E8DFCF" />
  <rect x="23" y="50" width="36" height="5.2" rx="2.6" fill="#E8DFCF" />
  <rect x="24" y="63" width="30" height="4.8" rx="2.4" fill="#E8DFCF" />

  <circle cx="77" cy="20" r="14.2" fill="#D9A441" />
  <circle cx="77" cy="20" r="11.8" fill="#E8DFCF" />
  <text x="77" y="23.3" text-anchor="middle" font-family="Outfit, sans-serif" font-size="8.8" font-weight="800" fill="#8A4F2A">2x</text>
</svg>
