<svg xmlns="http://www.w3.org/2000/svg" viewBox="0 0 344 96" role="img" aria-label="Twice Baked Marketing">
  <defs>
    <linearGradient id="potatoWordmark" x1="20" y1="12" x2="74" y2="86" gradientUnits="userSpaceOnUse">
      <stop offset="0" stop-color="#D9A441" />
      <stop offset="1" stop-color="#A56A31" />
    </linearGradient>
  </defs>

  <rect x="8" y="8" width="80" height="80" rx="22" fill="#E9DCC7" />

  <path d="M41 14C23 14 10 33 10 58c0 18 11 30 28 30 21 0 40-15 40-38 0-19-14-36-37-36z" fill="url(#potatoWordmark)" />

  <circle cx="24" cy="27" r="2.7" fill="#8D592F" opacity="0.45" />
  <circle cx="19.5" cy="49" r="2.4" fill="#8D592F" opacity="0.45" />
  <circle cx="33" cy="72" r="2.6" fill="#8D592F" opacity="0.45" />

  <rect x="24" y="39" width="39" height="5.6" rx="2.8" fill="#E8DFCF" />
  <rect x="23" y="51" width="34" height="5" rx="2.5" fill="#E8DFCF" />
  <rect x="24" y="63" width="28" height="4.6" rx="2.3" fill="#E8DFCF" />

  <circle cx="73" cy="24" r="14" fill="#D9A441" />
  <circle cx="73" cy="24" r="11.7" fill="#E8DFCF" />
  <text x="73" y="27.2" text-anchor="middle" font-family="Outfit, sans-serif" font-size="8.7" font-weight="800" fill="#8A4F2A">2x</text>

  <g fill="#3f2b1d" font-family="Outfit, sans-serif">
    <text x="102" y="44" font-size="22" font-weight="800">Twice Baked</text>
    <text x="102" y="69" font-size="20" font-weight="600" fill="#6c4a32">Marketing</text>
  </g>
</svg>
