<svg xmlns="http://www.w3.org/2000/svg" viewBox="0 0 64 64" role="img" aria-label="Twice Baked Marketing favicon">
  <defs>
    <linearGradient id="potatoFav" x1="13" y1="8" x2="50" y2="58" gradientUnits="userSpaceOnUse">
      <stop offset="0" stop-color="#D9A441" />
      <stop offset="1" stop-color="#A56A31" />
    </linearGradient>
  </defs>

  <rect width="64" height="64" rx="14" fill="#E9DCC7" />

  <path d="M27 7C15 7 6 20 6 39c0 14 8 23 21 23 16 0 30-12 30-29C57 18 47 7 27 7z" fill="url(#potatoFav)" />

  <circle cx="16" cy="16" r="1.8" fill="#8D592F" opacity="0.45" />
  <circle cx="12.5" cy="33.5" r="1.6" fill="#8D592F" opacity="0.45" />
  <circle cx="22" cy="52" r="1.8" fill="#8D592F" opacity="0.45" />

  <rect x="16" y="25" width="27" height="4" rx="2" fill="#E8DFCF" />
  <rect x="15.5" y="34" width="24" height="3.6" rx="1.8" fill="#E8DFCF" />
  <rect x="16" y="43" width="20" height="3.2" rx="1.6" fill="#E8DFCF" />

  <circle cx="51.2" cy="13.6" r="9.4" fill="#D9A441" />
  <circle cx="51.2" cy="13.6" r="7.8" fill="#E8DFCF" />
  <text x="51.2" y="15.7" text-anchor="middle" font-family="Outfit, sans-serif" font-size="5.8" font-weight="800" fill="#8A4F2A">2x</text>
</svg>
